<?xml version="1.0" encoding="UTF-8"?><svg width="567" height="567" version="1.1" viewBox="0 0 567 567" xmlns="http://www.w3.org/2000/svg" xmlns:xlink="http://www.w3.org/1999/xlink"><!--Generated by IJSVG (https://github.com/curthard89/IJSVG)--><g transform="scale(1.00012)"><g fill="#5F5F5F"><path d="M240.98,158.566c-2,5.53 -4,11.06 -6,16.58c-7.8,21.37 -15.49,42.77 -23.45,64.08c-7.43,19.9 -15.15,39.69 -22.75,59.52c-2.25,5.87 -4.52,11.73 -6.74,17.6l-1.52198e-09,6.58736e-09c-0.134169,0.580702 -0.689761,0.962672 -1.28,0.88c-20.86,0 -41.7167,0 -62.57,0l5.56565e-08,-7.54289e-09c-0.627069,0.0849846 -1.21753,-0.315841 -1.37,-0.93c-14.9,-39.11 -30,-78.14 -44.3,-117.49c-20,-55.1 -40.1067,-110.153 -60.32,-165.16c-3.91333,-10.6667 -7.82667,-21.3667 -11.74,-32.1c-0.12,-0.33 -0.14,-0.72 -0.46,-1v-0.44c19.6,0 39.2033,0 58.81,0l-9.35805e-09,1.36122e-09c0.728521,-0.105971 1.41465,0.370389 1.57,1.09c20,52.3 40.0367,104.59 60.11,156.87l28.48,74.32c0.13,0.33 0.26,0.65 0.47,1.18l2.28,-5.92l26.2,-68.38c0.1,-0.27 0.25,-0.52 0.38,-0.79h62c0.24,0.04 0.46,0.07 0.68,0.09Z" transform="translate(70.86, 89.734)"></path><path fill="#FF0000" d="M14.28,55.1987l-9.97206e-07,-3.61178e-07c-0.884248,-0.320266 -1.79421,-0.564485 -2.71999,-0.729999c-4.64,-1.56 -7.32,-5 -9,-9.36l-3.49446e-07,-9.86985e-07c-1.52519,-4.3078 -2.31947,-8.84027 -2.35,-13.41c-0.21,-5.9 0,-11.78 1.69,-17.5c1.12,-3.82 2.87,-7.28 6.25,-9.61l1.28638e-06,-8.77835e-07c6.7242,-4.58866 15.8951,-2.85746 20.4837,3.86674c0.543888,0.797011 1.0082,1.6455 1.38626,2.53326l1.32648e-06,3.12869e-06c1.6302,3.84503 2.54192,7.95628 2.69,12.13c0.4,6.34 0.37,12.66 -1.19,18.87l5.68795e-07,-2.47995e-06c-0.609555,2.65767 -1.70458,5.17995 -3.23,7.44l7.09572e-08,-1.04301e-07c-2.05804,3.02515 -5.28989,5.04913 -8.91,5.58c-0.23,0 -0.53,-0.07 -0.68,0.23Zm14,-26.86l1.5396e-06,-6.79232e-05c0.0631331,-2.78535 -0.100744,-5.57122 -0.490006,-8.32996c-0.51,-3.55 -1.25,-7 -3.41,-10l-2.91692e-07,-3.9547e-07c-3.19305,-4.32907 -9.29092,-5.24999 -13.62,-2.05695c-0.498272,0.367517 -0.960366,0.781708 -1.38001,1.23695l-8.63878e-07,1.03743e-06c-1.84797,2.21923 -3.06085,4.89724 -3.51,7.75l-2.5039e-06,1.30979e-05c-1.26723,6.62887 -1.46977,13.4174 -0.599997,20.11l-1.19658e-07,-1.31602e-06c0.290572,3.19575 1.19367,6.30568 2.66,9.16c3.51,6.55 11.74,6 15.14,2.66l1.50889e-07,-1.55818e-07c1.69585,-1.75125 2.9176,-3.90567 3.55,-6.26l8.12695e-07,-2.99742e-06c1.25997,-4.64709 1.80621,-9.4587 1.62001,-14.27Z" transform="translate(269.98, 421.881)"></path><path fill="#FF0000" d="M12.64,53.0103l-8.58461e-08,-2.8543e-08c-0.788418,-0.262141 -1.60334,-0.436528 -2.42999,-0.519999c-5.79,-1.38 -9.39,-5.63 -9.94,-11.77c-0.1,-1.17 -0.11,-2.35 -0.21,-3.53c-0.06,-0.73 0.11,-1.07 0.94,-1l2.71594e-07,1.89561e-08c0.955504,0.0666902 1.9145,0.0666901 2.87,-3.79122e-08c0.67,0 0.89,0.15 0.87,0.85l-4.53791e-07,8.90732e-06c-0.0844689,1.65802 0.0772897,3.31941 0.480003,4.93l-4.0438e-07,-1.83295e-06c0.863633,3.91463 4.22751,6.77577 8.23,7l-1.89764e-07,-2.04496e-08c1.9099,0.205819 3.84157,0.0428666 5.69,-0.48l8.46489e-07,-2.24978e-07c3.98997,-1.06045 6.76803,-4.67151 6.77,-8.8c0.21,-5 -1.59,-7.94 -6.17,-10c-2.88,-1.32 -6,-2.07 -8.92,-3.2l9.59248e-07,3.07664e-07c-2.49381,-0.799852 -4.76716,-2.16934 -6.64,-4c-2.92,-3.15 -3.46,-7 -2.92,-11c1,-7 6,-11.27 13.32,-11.43l6.43587e-07,-2.14771e-08c1.80621,-0.0602747 3.61299,0.100926 5.38,0.48c5.23,1.18 8.41,4.8 9,10.24c0.1,0.84 0.12,1.69 0.23,2.53c0.11,0.84 -0.19,0.88 -0.86,0.85c-1.14,-0.05 -2.47,0.35 -3.38,-0.12c-0.91,-0.47 -0.47,-2 -0.69,-3.08c-1.18,-5.62 -5.4,-7.45 -10.4,-6.84c-4.53,0.55 -7.18,3.1 -8,7.31l3.22533e-08,-1.46744e-07c-0.886473,4.03321 1.02302,8.16295 4.67,10.1l-5.37217e-06,-2.77192e-06c2.64559,1.36507 5.42323,2.45736 8.29,3.26l-1.24819e-06,-4.131e-07c1.5343,0.507792 3.03985,1.09866 4.50998,1.76999l-6.18515e-07,-2.53265e-07c4.6207,1.89205 7.52385,6.51619 7.22,11.5l1.76587e-07,6.16683e-06c0.0804308,2.80885 -0.552628,5.59224 -1.84,8.09c-2.3,4.15 -6,6.06 -10.57,6.73c-0.24,0 -0.53,-0.08 -0.68,0.22Z" transform="translate(234.25, 424.07)"></path><path fill="#FF0000" d="M12.4593,53.1517l-1.66679e-07,-5.98987e-08c-0.78039,-0.280445 -1.59383,-0.458595 -2.42,-0.53l-5.09897e-07,-1.07212e-07c-5.21959,-1.09748 -9.14642,-5.41941 -9.74,-10.72l-1.3561e-06,-1.04313e-05c-0.209022,-1.60783 -0.299266,-3.22888 -0.269999,-4.84997c0,-0.49 0.07,-0.74 0.65,-0.72c1.21,0 2.66,-0.39 3.59,0.13c0.93,0.52 0.34,2.18 0.42,3.32c0.45,6.48998 5.36,10.29 12.16,9.28998c3.59,-0.51 6.65,-1.89 8.08,-5.46c1.86,-4.65 1.49,-10.7 -4.81,-13.61c-2.61,-1.21 -5.38,-2 -8.07,-3c-1.14,-0.41 -2.28,-0.84 -3.38,-1.34c-5.92,-2.7 -8.18,-7.18 -7.54,-13.58c0.75,-7.48 5.81,-11.87 13.43,-12l4.79909e-07,-1.86605e-08c2.10069,-0.0816822 4.20155,0.157741 6.23,0.71c4.78,1.39 7.27,4.75 8.05,9.51c0.16,1 0.18,2 0.28,3c0.06,0.62 -0.07,1 -0.82,0.91l7.57533e-08,3.84358e-09c-1.02934,-0.0522261 -2.06066,-0.0522261 -3.09,-7.68711e-09c-0.59,0 -0.76,-0.19 -0.75,-0.76l1.47101e-07,-2.8271e-05c0.00575614,-1.10652 -0.149197,-2.20801 -0.460008,-3.27l1.94557e-07,9.1013e-07c-0.685324,-3.20593 -3.35882,-5.60481 -6.62,-5.94c-3.69,-0.54 -7.06,0.07 -9.65,3c-3,3.36 -3.3,10.9 2.63,14.25c2.88,1.63 6,2.47 9.12,3.56l-2.98981e-06,-9.85997e-07c1.85117,0.610491 3.63671,1.40443 5.33,2.37l4.37933e-07,2.45881e-07c3.37972,1.89757 5.51947,5.42589 5.64,9.3l-1.69763e-07,-1.86747e-06c0.234054,2.57469 -0.0864791,5.16965 -0.939999,7.61c-2,5.3 -6.07,7.8 -11.45,8.59c-0.31,0 -0.67,-0.11 -0.91,0.21Z" transform="translate(200.151, 423.928)"></path><path fill="#FF0000" d="M14.718,55.2072l-2.5253e-08,-9.35285e-09c-0.706746,-0.261755 -1.44178,-0.439639 -2.19,-0.53c-4.41,-1.21 -7.26,-4.16 -9.1,-8.21l1.25676e-07,2.90163e-07c-1.6294,-3.76197 -2.57096,-7.78565 -2.78,-11.88l4.53117e-07,4.5166e-06c-0.648049,-6.45966 -0.239363,-12.9818 1.21,-19.31c1.06,-4.14 2.76,-7.94 6.35,-10.56l9.86906e-08,-7.10413e-08c6.55316,-4.71721 15.6896,-3.22889 20.4068,3.32427c1.35948,1.88859 2.24851,4.0744 2.59319,6.37573c0.13,0.95 0.16,1.91 0.26,2.86c0.06,0.58 -0.16,0.83 -0.74,0.75l-1.2463e-07,-7.86446e-09c-0.109891,-0.00693436 -0.220109,-0.00693435 -0.33,1.57289e-08c-1.1,0 -2.44,0.36 -3.25,-0.13c-0.81,-0.49 -0.38,-2 -0.57,-3.07c-1.28,-7.29 -8.38,-11 -14.66,-7.53c-2.5,1.37 -3.86,3.66 -4.83,6.23l-1.21239e-06,3.51555e-06c-1.27447,3.69556 -1.94967,7.57117 -2,11.48l1.03473e-06,-1.67619e-05c-0.333678,5.4053 0.0870283,10.8307 1.25,16.12l1.28009e-07,6.84619e-07c0.510526,2.7304 1.75901,5.26887 3.61,7.34l-2.12901e-07,-2.17286e-07c3.64879,3.72393 9.62556,3.78484 13.3495,0.136049c0.409019,-0.400766 0.780724,-0.837918 1.11052,-1.30605l5.78474e-07,-8.94999e-07c1.78823,-2.7667 2.79065,-5.96751 2.9,-9.26c0.06,-0.86 0.27,-1.26 1.22,-1.17c0.95,0.09 1.91,0 2.87,0c0.4,0 0.69,0 0.65,0.58c-0.3,4.12 -1.1,8.09 -3.38,11.63l1.03965e-07,-1.66021e-07c-2.02649,3.2361 -5.39377,5.39659 -9.18,5.89c-0.2,0 -0.45,0 -0.57,0.22Z" transform="translate(309.352, 421.873)"></path><path fill="#616060" d="M0,0.08c1.33,0 2.65,0.06 4,0c0.72,0 1,0.2 1.17,0.93c2.09,8.61 4.22,17.2 6.35,25.8l4.61,18.75c0,0.17 0,0.37 0.34,0.54c0.33,-1.28 0.66,-2.52 1,-3.78c3.33333,-13.6667 6.66667,-27.3333 10,-41c0.24,-1 0.65,-1.32 1.63,-1.22l2.62619e-07,2.27357e-08c0.918283,0.0794981 1.84172,0.0794981 2.76,-4.54713e-08c0.82,-0.06 0.87,0.21 0.67,0.93c-2,7.56 -4,15.14 -6,22.7c-2.35,8.92 -4.72,17.83 -7,26.76c-0.19,0.73 -0.46,0.94 -1.17,0.91c-1.32,-0.05 -2.65,-0.06 -4,0c-0.74,0 -1,-0.23 -1.16,-0.94c-3.12,-11.9467 -6.26333,-23.8867 -9.43,-35.82c-1.18,-4.47333 -2.36,-8.95667 -3.54,-13.45l9.54126e-08,2.55846e-07c-0.0610931,-0.163819 -0.138129,-0.321241 -0.23,-0.469999Z" transform="translate(70.87, 424.81)"></path><path fill="#FF0000" d="M62.66,158.531c-0.22,0 -0.44,0 -0.66,0h-62c1.9,-5 3.78,-10 5.7,-15c18.1733,-47.5333 36.3533,-95.0167 54.54,-142.45l-2.41943e-08,1.23371e-07c0.126266,-0.64385 0.728843,-1.0805 1.38,-1c20.9667,0 41.9367,0 62.91,0c0.88,0 1.17,0.34 1.46,1.08c22.76,59.4333 45.53,118.863 68.31,178.29l52.31,136.49c0.45,1.17 0.45,1.17 -0.8,1.17h-61.91c-0.64,0 -1.12,0 -1.43,-0.8c-9.82,-25.75 -19.91,-51.4 -29.48,-77.24c-16.39,-44.24 -32.45,-88.61 -48.65,-132.92c-3.72,-10.18 -7.43,-20.36 -11.23,-30.76c-0.66,1.78 -1.26,3.37 -1.85,5l-28.3,77.44c-0.14,0.22 -0.2,0.46 -0.3,0.7Z" transform="translate(249.18, 89.7695)"></path><path fill="#FF0000" d="M0,16.6745l1.29063e-07,-9.08969e-06c0.0826366,-5.81982 3.52453,-11.0665 8.83001,-13.46l-1.92185e-06,9.37026e-07c6.59288,-3.21445 14.5141,-1.71803 19.48,3.68l3.69539e-07,4.04985e-07c5.44992,5.97267 5.02615,15.2325 -0.946517,20.6824c-0.265828,0.242562 -0.540509,0.47524 -0.823484,0.69756c-8.82,7.24 -22.74,3.24 -25.88,-7.45l3.82315e-08,1.22366e-07c-0.419927,-1.34404 -0.642251,-2.74199 -0.659998,-4.15Z" transform="translate(326.69, 286.486)"></path><path fill="#FF0000" d="M36.1,51.39c-1.57,0 -3,0 -4.49,0c-0.6,0 -0.58,-0.43 -0.69,-0.81c-1.23,-4.39 -2.48,-8.77 -3.67,-13.17l1.58104e-08,2.71321e-07c-0.0346984,-0.595457 -0.545541,-1.05004 -1.141,-1.01534c-0.0432695,0.00252139 -0.086348,0.00764526 -0.129002,0.0153438c-5.33333,0.0333333 -10.6367,0.0333333 -15.91,0c-0.8,0 -1.06,0.28 -1.25,1c-1.16,4.29 -2.39,8.56 -3.54,12.86c-0.23,0.87 -0.59,1.18 -1.5,1.11c-1.21,-0.09 -2.43,0 -3.78,0c0.62,-2.14 1.21,-4.2 1.82,-6.25c4.33333,-14.6667 8.66667,-29.3333 13,-44c0.23,-0.79 0.55,-1.13 1.42,-1.07l-3.1047e-08,-2.16693e-09c1.24848,0.0871369 2.50152,0.0871369 3.75,4.3338e-09c0.8,-0.05 1.05,0.28 1.26,1c3.67333,12.5133 7.36333,25.0233 11.07,37.53c1.26,4.23 2.49,8.45 3.78,12.8Zm-18,-47.69c-0.13,0.4 -0.19,0.57 -0.24,0.74c-2.49,9.11 -5,18.22 -7.5,27.31c-0.24,0.85 0.11,0.81 0.71,0.81c4.64,0 9.28,0 13.92,0c0.78,0 1,-0.1 0.76,-1c-1.94,-6.94 -3.82,-13.89 -5.72,-20.83Z" transform="translate(162.42, 424.81)"></path><path fill="#FF0000" d="M0,51.31c1.9,-6.43 3.75,-12.74 5.61,-19c3.07333,-10.3933 6.14,-20.79 9.2,-31.19c0.24,-0.81 0.56,-1.12 1.42,-1.06l-1.60985e-06,-1.08025e-07c1.25193,0.0840069 2.50807,0.084007 3.76,2.16049e-07c0.8,-0.05 1.06,0.27 1.26,1c3.67333,12.5133 7.36333,25.0267 11.07,37.54c1.25,4.22 2.5,8.44 3.79,12.79c-1.56,0 -3,0 -4.49,0c-0.61,0 -0.58,-0.43 -0.68,-0.81c-1.23,-4.39 -2.48,-8.77 -3.67,-13.17l1.58104e-08,2.71321e-07c-0.0346984,-0.595457 -0.545541,-1.05004 -1.141,-1.01534c-0.0432695,0.00252139 -0.086348,0.00764526 -0.129002,0.0153438c-5.33333,0.0333333 -10.64,0.0333333 -15.92,0c-0.8,0 -1.05,0.28 -1.25,1c-1.18,4.36 -2.44,8.7 -3.62,13.07c-0.19,0.72 -0.49,0.92 -1.2,0.89c-1.29,-0.1 -2.58,-0.0600001 -4.01,-0.0600001Zm18.14,-47.46h-0.19c-2.54,9.28667 -5.08333,18.57 -7.63,27.85c-0.22,0.78 0.11,0.76 0.66,0.76c4.68,0 9.36,0 14,0c0.92,0 0.89,-0.28 0.69,-1c-1.55,-5.56 -3.06,-11.12 -4.58,-16.69Z" transform="translate(356.12, 424.89)"></path><path fill="#636261" d="M0.04,25.59c0,-8.14 0,-16.29 0,-24.43c0,-0.93 0.26,-1.16 1.17,-1.15c7.77333,0.0333333 15.5467,0.0333333 23.32,0c0.87,0 1.12,0.22 1.1,1.1c0,2.85 0,2.85 -2.87,2.85c-5.64,0 -11.27,0 -16.91,0c-0.8,0 -1.06,0.16 -1.05,1c0.04,5.52667 0.04,11.0533 0,16.58c0,0.81 0.17,1 1,1c5.75,0 11.5,0 17.24,0c0.88,0 1.21,0.15 1.19,1.12c-0.06,2.86 0,2.86 -2.87,2.86c-5.2,0 -10.39,0 -15.59,0c-0.74,0 -1,0.15 -1,1c0.0333333,6.3 0.0333333,12.6 0,18.9c0,0.86 0.26,1 1.05,1c6.41,0 12.82,0 19.23,0c1,0 1.31,0.25 1.2,1.22c-0.11,0.97 0.26,2 -0.19,2.55c-0.45,0.55 -1.73,0.19 -2.63,0.2c-7.44,0 -14.89,0 -22.33,0c-0.87,0 -1.1,-0.22 -1.1,-1.09c0.05,-8.28 0.04,-16.5 0.04,-24.71Z" transform="translate(120.44, 424.89)"></path><path fill="#FF0000" d="M0.06,25.61c0,-8.14 0,-16.29 0,-24.43c0,-0.9 0.2,-1.18 1.14,-1.17c7.74,0.04 15.4767,0.04 23.21,0c0.92,0 1.25,0.24 1.14,1.16c-0.11,0.92 0.36,2 -0.17,2.57c-0.53,0.57 -1.74,0.2 -2.64,0.2c-5.64,0 -11.28,0 -16.91,0c-0.88,0 -1.09,0.24 -1.09,1.1c0.04,5.48667 0.04,10.9767 0,16.47c0,0.89 0.26,1.08 1.1,1.07c5.75,0 11.5,0 17.24,0c0.89,0 1.15,0.25 1.07,1.1c-0.08,0.85 0.28,2.13 -0.19,2.67c-0.47,0.54 -1.8,0.2 -2.74,0.2c-5.16,0 -10.32,0 -15.48,0c-0.74,0 -1,0.15 -1,1c0.0333333,6.3 0.0333333,12.6 0,18.9c0,0.85 0.24,1 1,1c6.41,0 12.82,0 19.23,0c1,0 1.23,0.25 1.21,1.22c-0.06,2.76 0,2.76 -2.72,2.76c-7.37,0 -14.74,0 -22.11,0c-1.18,0 -1.35,-0.36 -1.34,-1.41c0.06,-8.19 0.05,-16.3 0.05,-24.41Z" transform="translate(469.39, 424.89)"></path><path fill="#FF0000" d="M16.43,46.49l4.53,-18.41c2.22667,-9.06667 4.45333,-18.1367 6.68,-27.21c0.14,-0.58 0.37,-0.86 1,-0.82l6.15015e-07,3.88488e-08c1.0656,0.067311 2.13438,0.0673114 3.19998,1.42603e-06c0.86,-0.05 0.87,0.27 0.69,1c-1.63,6.11 -3.22,12.23 -4.83,18.35c-2.70667,10.2733 -5.40667,20.55 -8.1,30.83c-0.23,0.89 -0.57,1.25 -1.53,1.18l-6.6757e-07,-4.44298e-08c-1.25195,-0.0833228 -2.50805,-0.0833228 -3.76,8.88596e-08c-0.71,0 -0.93,-0.27 -1.09,-0.88c-2.06667,-7.89333 -4.14,-15.7867 -6.22,-23.68c-2.24,-8.53 -4.46,-17.07 -6.74,-25.59c-0.26,-1 -0.06,-1.22 0.9,-1.15l-1.24348e-06,-1.08265e-07c0.918259,0.0799493 1.84173,0.0799497 2.75999,1.1541e-06c0.87,-0.09 1.1,0.32 1.28,1.06c3.62,14.7867 7.25,29.57 10.89,44.35c0.100036,0.189997 0.210036,0.429997 0.340036,0.969997Z" transform="translate(432.7, 424.85)"></path><path fill="#FF0000" d="M13.62,28.03c0,-7.52 0,-15 0,-22.55c0,-0.83 -0.17,-1.12 -1.07,-1.11c-3.72,0.06 -7.44,0 -11.16,0c-0.75,0 -1.08,-0.16 -1,-1c0.08,-0.84 -0.39,-2.17 0.2,-2.77c0.59,-0.6 1.82,-0.18 2.76,-0.18c9,0 18,0 27,0c1,0 1.2,0.29 1.18,1.23c-0.06,2.72 0,2.72 -2.76,2.72c-3.06,0 -6.12,0 -9.17,0c-1,0 -1.35,0.19 -1.35,1.3c0,14.92 0,29.85 0.06,44.77c0,1.17 -0.34,1.45 -1.4,1.33l8.82781e-07,8.5737e-08c-0.771518,-0.0749311 -1.54848,-0.0749311 -2.32,-1.71474e-07c-0.77,0.07 -1,-0.18 -1,-1c0,-3.09 0,-6.19 0,-9.29c0.0199994,-4.46667 0.0299991,-8.95 0.0299991,-13.45Z" transform="translate(387.87, 424.44)"></path><path fill="#616060" d="M4.74998,25.76c0,8.18 0,16.35 0,24.52c0,0.91 -0.19,1.24 -1.14,1.15l-4.23412e-07,-2.72295e-08c-0.955673,-0.061459 -1.91431,-0.0614594 -2.86998,-1.27005e-06c-0.54,0 -0.74,-0.18 -0.68,-0.7l8.46189e-08,-1.41292e-06c0.00877591,-0.146535 0.00877585,-0.293465 -1.69238e-07,-0.44c0,-16.3133 0,-32.6267 0,-48.94c0,-0.94 0.18,-1.35 1.2,-1.22l-3.487e-08,-3.8753e-09c0.807514,0.0897427 1.62249,0.0897427 2.43,7.75054e-09c0.91,-0.09 1.08,0.28 1.08,1.11c-0.0300201,8.17 -0.0200201,16.35 -0.0200201,24.52Z" transform="translate(107.73, 424.78)"></path><path fill="#FF0000" d="M0,25.6c0,-8.14 0,-16.28 0,-24.42c0,-0.86 0.2,-1.18 1.08,-1.09l-7.36919e-07,-7.13356e-08c0.808111,0.0782272 1.62189,0.0782273 2.43,1.42671e-07c0.89,-0.08 1.18,0.15 1.18,1.11c0,16.3933 0,32.7833 0,49.17c0,0.83 -0.2,1.09 -1,1l1.00562e-09,9.35643e-11c-0.881426,-0.0820235 -1.76856,-0.0820238 -2.64999,-8.41516e-07c-0.87,0.09 -1,-0.25 -1,-1c-0.0300083,-8.27 -0.0400083,-16.52 -0.0400083,-24.77Z" transform="translate(347.51, 424.82)"></path><path fill="#FF0000" d="M5.16,25.87c0,8.21 0,16.42 0,24.63c0,0.78 -0.12,1.15 -1,1c-1.19,-0.15 -2.8,0.51 -3.48,-0.26c-0.68,-0.77 -0.19,-2.24 -0.19,-3.41c0,-15.3933 0,-30.7833 0,-46.17c0,-1.66 -0.22,-1.42 1.49,-1.44c0.7,0 1.41,0.06 2.1,0c0.9,-0.1 1.08,0.26 1.08,1.1c-0.01,8.21 0,16.38 0,24.55Z" transform="translate(423.32, 424.66)"></path></g></g></svg>